<mxfile host="app.diagrams.net" agent="Mozilla/5.0 (Windows NT 10.0; Win64; x64) AppleWebKit/537.36 (KHTML, like Gecko) Chrome/129.0.0.0 Safari/537.36" version="24.8.0">
  <diagram name="Page-1" id="GMgQtYpnSTnjItMJ45bt">
    <mxGraphModel dx="2238" dy="1005" grid="1" gridSize="10" guides="1" tooltips="1" connect="1" arrows="1" fold="1" page="1" pageScale="1" pageWidth="850" pageHeight="1100" math="0" shadow="0">
      <root>
        <mxCell id="0" />
        <mxCell id="1" parent="0" />
        <mxCell id="Gs99Epr3pNbpuj_0KiGw-8" style="edgeStyle=none;curved=1;rounded=0;orthogonalLoop=1;jettySize=auto;html=1;entryX=0.75;entryY=0;entryDx=0;entryDy=0;fontSize=12;startSize=8;endSize=8;" parent="1" source="Gs99Epr3pNbpuj_0KiGw-1" target="Gs99Epr3pNbpuj_0KiGw-2" edge="1">
          <mxGeometry relative="1" as="geometry" />
        </mxCell>
        <mxCell id="Gs99Epr3pNbpuj_0KiGw-11" value="" style="edgeStyle=none;curved=1;rounded=0;orthogonalLoop=1;jettySize=auto;html=1;fontSize=12;startSize=8;endSize=8;" parent="1" source="Gs99Epr3pNbpuj_0KiGw-1" target="Gs99Epr3pNbpuj_0KiGw-3" edge="1">
          <mxGeometry relative="1" as="geometry">
            <Array as="points">
              <mxPoint x="425" y="160" />
            </Array>
          </mxGeometry>
        </mxCell>
        <mxCell id="Gs99Epr3pNbpuj_0KiGw-13" style="edgeStyle=none;curved=1;rounded=0;orthogonalLoop=1;jettySize=auto;html=1;fontSize=12;startSize=8;endSize=8;entryX=1;entryY=0;entryDx=0;entryDy=0;" parent="1" source="Gs99Epr3pNbpuj_0KiGw-1" target="Gs99Epr3pNbpuj_0KiGw-5" edge="1">
          <mxGeometry relative="1" as="geometry">
            <mxPoint x="530.0000000000002" y="279.9999999999998" as="targetPoint" />
            <Array as="points">
              <mxPoint x="510" y="160" />
            </Array>
          </mxGeometry>
        </mxCell>
        <mxCell id="Gs99Epr3pNbpuj_0KiGw-1" value="&lt;font style=&quot;font-size: 18px;&quot;&gt;User&lt;/font&gt;" style="rounded=0;whiteSpace=wrap;html=1;" parent="1" vertex="1">
          <mxGeometry x="375" y="30" width="100" height="50" as="geometry" />
        </mxCell>
        <mxCell id="Gs99Epr3pNbpuj_0KiGw-23" style="edgeStyle=none;curved=1;rounded=0;orthogonalLoop=1;jettySize=auto;html=1;fontSize=12;startSize=8;endSize=8;" parent="1" source="Gs99Epr3pNbpuj_0KiGw-2" target="Gs99Epr3pNbpuj_0KiGw-5" edge="1">
          <mxGeometry relative="1" as="geometry" />
        </mxCell>
        <mxCell id="Gs99Epr3pNbpuj_0KiGw-2" value="&lt;font style=&quot;font-size: 18px;&quot;&gt;Vote&lt;/font&gt;" style="rounded=0;whiteSpace=wrap;html=1;" parent="1" vertex="1">
          <mxGeometry x="240" y="160" width="100" height="50" as="geometry" />
        </mxCell>
        <mxCell id="Gs99Epr3pNbpuj_0KiGw-12" style="edgeStyle=none;curved=1;rounded=0;orthogonalLoop=1;jettySize=auto;html=1;fontSize=12;startSize=8;endSize=8;" parent="1" source="Gs99Epr3pNbpuj_0KiGw-3" target="Gs99Epr3pNbpuj_0KiGw-5" edge="1">
          <mxGeometry relative="1" as="geometry" />
        </mxCell>
        <mxCell id="Gs99Epr3pNbpuj_0KiGw-3" value="&lt;font style=&quot;font-size: 18px;&quot;&gt;Message&lt;/font&gt;" style="rounded=0;whiteSpace=wrap;html=1;" parent="1" vertex="1">
          <mxGeometry x="375" y="160" width="100" height="50" as="geometry" />
        </mxCell>
        <mxCell id="Gs99Epr3pNbpuj_0KiGw-15" style="edgeStyle=none;curved=1;rounded=0;orthogonalLoop=1;jettySize=auto;html=1;entryX=1;entryY=0.75;entryDx=0;entryDy=0;fontSize=12;startSize=8;endSize=8;" parent="1" source="Gs99Epr3pNbpuj_0KiGw-4" target="Gs99Epr3pNbpuj_0KiGw-5" edge="1">
          <mxGeometry relative="1" as="geometry" />
        </mxCell>
        <mxCell id="Gs99Epr3pNbpuj_0KiGw-22" style="edgeStyle=none;curved=1;rounded=0;orthogonalLoop=1;jettySize=auto;html=1;fontSize=12;startSize=8;endSize=8;" parent="1" source="Gs99Epr3pNbpuj_0KiGw-4" target="Gs99Epr3pNbpuj_0KiGw-6" edge="1">
          <mxGeometry relative="1" as="geometry">
            <Array as="points">
              <mxPoint x="550" y="370" />
            </Array>
          </mxGeometry>
        </mxCell>
        <mxCell id="Gs99Epr3pNbpuj_0KiGw-4" value="&lt;font style=&quot;font-size: 18px;&quot;&gt;Award&lt;/font&gt;" style="rounded=0;whiteSpace=wrap;html=1;" parent="1" vertex="1">
          <mxGeometry x="530" y="160" width="100" height="50" as="geometry" />
        </mxCell>
        <mxCell id="Gs99Epr3pNbpuj_0KiGw-16" style="edgeStyle=none;curved=1;rounded=0;orthogonalLoop=1;jettySize=auto;html=1;fontSize=12;startSize=8;endSize=8;" parent="1" source="Gs99Epr3pNbpuj_0KiGw-5" target="Gs99Epr3pNbpuj_0KiGw-6" edge="1">
          <mxGeometry relative="1" as="geometry" />
        </mxCell>
        <mxCell id="Gs99Epr3pNbpuj_0KiGw-5" value="&lt;font style=&quot;font-size: 18px;&quot;&gt;Post&lt;/font&gt;" style="rounded=0;whiteSpace=wrap;html=1;" parent="1" vertex="1">
          <mxGeometry x="375" y="280" width="100" height="50" as="geometry" />
        </mxCell>
        <mxCell id="Gs99Epr3pNbpuj_0KiGw-6" value="&lt;font style=&quot;font-size: 18px;&quot;&gt;Comment&lt;/font&gt;" style="rounded=0;whiteSpace=wrap;html=1;" parent="1" vertex="1">
          <mxGeometry x="240" y="410" width="100" height="50" as="geometry" />
        </mxCell>
        <mxCell id="Gs99Epr3pNbpuj_0KiGw-17" style="edgeStyle=none;curved=1;rounded=0;orthogonalLoop=1;jettySize=auto;html=1;fontSize=12;startSize=8;endSize=8;entryX=1;entryY=0.25;entryDx=0;entryDy=0;" parent="1" source="Gs99Epr3pNbpuj_0KiGw-7" target="Gs99Epr3pNbpuj_0KiGw-1" edge="1">
          <mxGeometry relative="1" as="geometry">
            <mxPoint x="740" y="60" as="targetPoint" />
            <Array as="points">
              <mxPoint x="820" y="120" />
            </Array>
          </mxGeometry>
        </mxCell>
        <mxCell id="Gs99Epr3pNbpuj_0KiGw-20" style="edgeStyle=none;curved=1;rounded=0;orthogonalLoop=1;jettySize=auto;html=1;entryX=0.75;entryY=0;entryDx=0;entryDy=0;fontSize=12;startSize=8;endSize=8;" parent="1" source="Gs99Epr3pNbpuj_0KiGw-7" target="Gs99Epr3pNbpuj_0KiGw-19" edge="1">
          <mxGeometry relative="1" as="geometry" />
        </mxCell>
        <mxCell id="Gs99Epr3pNbpuj_0KiGw-7" value="&lt;span style=&quot;font-size: 18px;&quot;&gt;Subreddit&lt;/span&gt;" style="rounded=0;whiteSpace=wrap;html=1;" parent="1" vertex="1">
          <mxGeometry x="530" y="410" width="100" height="50" as="geometry" />
        </mxCell>
        <mxCell id="Gs99Epr3pNbpuj_0KiGw-10" style="edgeStyle=none;curved=1;rounded=0;orthogonalLoop=1;jettySize=auto;html=1;entryX=0.427;entryY=-0.07;entryDx=0;entryDy=0;entryPerimeter=0;fontSize=12;startSize=8;endSize=8;" parent="1" source="Gs99Epr3pNbpuj_0KiGw-2" target="Gs99Epr3pNbpuj_0KiGw-6" edge="1">
          <mxGeometry relative="1" as="geometry" />
        </mxCell>
        <mxCell id="Gs99Epr3pNbpuj_0KiGw-14" style="edgeStyle=none;curved=1;rounded=0;orthogonalLoop=1;jettySize=auto;html=1;entryX=0.365;entryY=0.005;entryDx=0;entryDy=0;entryPerimeter=0;fontSize=12;startSize=8;endSize=8;" parent="1" source="Gs99Epr3pNbpuj_0KiGw-1" target="Gs99Epr3pNbpuj_0KiGw-4" edge="1">
          <mxGeometry relative="1" as="geometry" />
        </mxCell>
        <mxCell id="Gs99Epr3pNbpuj_0KiGw-21" style="edgeStyle=none;curved=1;rounded=0;orthogonalLoop=1;jettySize=auto;html=1;entryX=0;entryY=0.75;entryDx=0;entryDy=0;fontSize=12;startSize=8;endSize=8;" parent="1" source="Gs99Epr3pNbpuj_0KiGw-19" target="Gs99Epr3pNbpuj_0KiGw-1" edge="1">
          <mxGeometry relative="1" as="geometry">
            <Array as="points">
              <mxPoint x="-30" y="400" />
              <mxPoint x="260" y="60" />
            </Array>
          </mxGeometry>
        </mxCell>
        <mxCell id="Gs99Epr3pNbpuj_0KiGw-19" value="&lt;span style=&quot;font-size: 18px;&quot;&gt;Moderator&lt;/span&gt;" style="rounded=0;whiteSpace=wrap;html=1;" parent="1" vertex="1">
          <mxGeometry x="430" y="525" width="100" height="50" as="geometry" />
        </mxCell>
        <mxCell id="Gs99Epr3pNbpuj_0KiGw-87" style="edgeStyle=none;curved=1;rounded=0;orthogonalLoop=1;jettySize=auto;html=1;entryX=0.5;entryY=0;entryDx=0;entryDy=0;fontSize=12;startSize=8;endSize=8;" parent="1" source="Gs99Epr3pNbpuj_0KiGw-24" target="Gs99Epr3pNbpuj_0KiGw-36" edge="1">
          <mxGeometry relative="1" as="geometry">
            <Array as="points">
              <mxPoint x="290" y="870" />
            </Array>
          </mxGeometry>
        </mxCell>
        <mxCell id="Gs99Epr3pNbpuj_0KiGw-88" style="edgeStyle=none;curved=1;rounded=0;orthogonalLoop=1;jettySize=auto;html=1;entryX=0.5;entryY=0;entryDx=0;entryDy=0;fontSize=12;startSize=8;endSize=8;" parent="1" source="Gs99Epr3pNbpuj_0KiGw-24" target="Gs99Epr3pNbpuj_0KiGw-41" edge="1">
          <mxGeometry relative="1" as="geometry">
            <Array as="points">
              <mxPoint x="470" y="920" />
            </Array>
          </mxGeometry>
        </mxCell>
        <mxCell id="Gs99Epr3pNbpuj_0KiGw-89" style="edgeStyle=none;curved=1;rounded=0;orthogonalLoop=1;jettySize=auto;html=1;fontSize=12;startSize=8;endSize=8;entryX=0.5;entryY=0;entryDx=0;entryDy=0;" parent="1" source="Gs99Epr3pNbpuj_0KiGw-24" target="Gs99Epr3pNbpuj_0KiGw-47" edge="1">
          <mxGeometry relative="1" as="geometry">
            <Array as="points">
              <mxPoint x="720" y="920" />
            </Array>
          </mxGeometry>
        </mxCell>
        <mxCell id="Gs99Epr3pNbpuj_0KiGw-90" style="edgeStyle=none;curved=1;rounded=0;orthogonalLoop=1;jettySize=auto;html=1;entryX=0.5;entryY=0;entryDx=0;entryDy=0;fontSize=12;startSize=8;endSize=8;" parent="1" source="Gs99Epr3pNbpuj_0KiGw-24" target="Gs99Epr3pNbpuj_0KiGw-53" edge="1">
          <mxGeometry relative="1" as="geometry" />
        </mxCell>
        <mxCell id="Gs99Epr3pNbpuj_0KiGw-24" value="User" style="swimlane;fontStyle=0;childLayout=stackLayout;horizontal=1;startSize=30;horizontalStack=0;resizeParent=1;resizeParentMax=0;resizeLast=0;collapsible=1;marginBottom=0;whiteSpace=wrap;html=1;fontSize=19;swimlaneLine=1;" parent="1" vertex="1">
          <mxGeometry x="510" y="650" width="185" height="210" as="geometry">
            <mxRectangle x="330" y="640" width="80" height="40" as="alternateBounds" />
          </mxGeometry>
        </mxCell>
        <mxCell id="Gs99Epr3pNbpuj_0KiGw-25" value="user_id" style="text;strokeColor=default;fillColor=none;align=left;verticalAlign=middle;spacingLeft=4;spacingRight=4;overflow=hidden;points=[[0,0.5],[1,0.5]];portConstraint=eastwest;rotatable=0;whiteSpace=wrap;html=1;fontSize=15;swimlaneLine=1;" parent="Gs99Epr3pNbpuj_0KiGw-24" vertex="1">
          <mxGeometry y="30" width="185" height="30" as="geometry" />
        </mxCell>
        <mxCell id="Gs99Epr3pNbpuj_0KiGw-26" value="username" style="text;strokeColor=none;fillColor=none;align=left;verticalAlign=middle;spacingLeft=4;spacingRight=4;overflow=hidden;points=[[0,0.5],[1,0.5]];portConstraint=eastwest;rotatable=0;whiteSpace=wrap;html=1;fontSize=15;swimlaneLine=1;" parent="Gs99Epr3pNbpuj_0KiGw-24" vertex="1">
          <mxGeometry y="60" width="185" height="30" as="geometry" />
        </mxCell>
        <mxCell id="Gs99Epr3pNbpuj_0KiGw-27" value="email" style="text;strokeColor=none;fillColor=none;align=left;verticalAlign=middle;spacingLeft=4;spacingRight=4;overflow=hidden;points=[[0,0.5],[1,0.5]];portConstraint=eastwest;rotatable=0;whiteSpace=wrap;html=1;fontSize=15;swimlaneLine=1;" parent="Gs99Epr3pNbpuj_0KiGw-24" vertex="1">
          <mxGeometry y="90" width="185" height="30" as="geometry" />
        </mxCell>
        <mxCell id="Gs99Epr3pNbpuj_0KiGw-35" value="password_hash" style="text;strokeColor=none;fillColor=none;align=left;verticalAlign=middle;spacingLeft=4;spacingRight=4;overflow=hidden;points=[[0,0.5],[1,0.5]];portConstraint=eastwest;rotatable=0;whiteSpace=wrap;html=1;fontSize=15;swimlaneLine=1;" parent="Gs99Epr3pNbpuj_0KiGw-24" vertex="1">
          <mxGeometry y="120" width="185" height="30" as="geometry" />
        </mxCell>
        <mxCell id="Gs99Epr3pNbpuj_0KiGw-34" value="join_date" style="text;strokeColor=none;fillColor=none;align=left;verticalAlign=middle;spacingLeft=4;spacingRight=4;overflow=hidden;points=[[0,0.5],[1,0.5]];portConstraint=eastwest;rotatable=0;whiteSpace=wrap;html=1;fontSize=15;swimlaneLine=1;" parent="Gs99Epr3pNbpuj_0KiGw-24" vertex="1">
          <mxGeometry y="150" width="185" height="30" as="geometry" />
        </mxCell>
        <mxCell id="Gs99Epr3pNbpuj_0KiGw-33" value="karma" style="text;strokeColor=none;fillColor=none;align=left;verticalAlign=middle;spacingLeft=4;spacingRight=4;overflow=hidden;points=[[0,0.5],[1,0.5]];portConstraint=eastwest;rotatable=0;whiteSpace=wrap;html=1;fontSize=15;swimlaneLine=1;" parent="Gs99Epr3pNbpuj_0KiGw-24" vertex="1">
          <mxGeometry y="180" width="185" height="30" as="geometry" />
        </mxCell>
        <mxCell id="Gs99Epr3pNbpuj_0KiGw-93" style="edgeStyle=none;curved=1;rounded=0;orthogonalLoop=1;jettySize=auto;html=1;fontSize=12;startSize=8;endSize=8;" parent="1" source="Gs99Epr3pNbpuj_0KiGw-36" target="Gs99Epr3pNbpuj_0KiGw-78" edge="1">
          <mxGeometry relative="1" as="geometry" />
        </mxCell>
        <mxCell id="Gs99Epr3pNbpuj_0KiGw-36" value="&lt;font style=&quot;font-size: 16px;&quot;&gt;Vote&lt;/font&gt;" style="swimlane;fontStyle=0;childLayout=stackLayout;horizontal=1;startSize=30;horizontalStack=0;resizeParent=1;resizeParentMax=0;resizeLast=0;collapsible=1;marginBottom=0;whiteSpace=wrap;html=1;" parent="1" vertex="1">
          <mxGeometry y="1000" width="230" height="150" as="geometry" />
        </mxCell>
        <mxCell id="Gs99Epr3pNbpuj_0KiGw-37" value="vote_id" style="text;strokeColor=default;fillColor=none;align=left;verticalAlign=middle;spacingLeft=4;spacingRight=4;overflow=hidden;points=[[0,0.5],[1,0.5]];portConstraint=eastwest;rotatable=0;whiteSpace=wrap;html=1;fontSize=17;" parent="Gs99Epr3pNbpuj_0KiGw-36" vertex="1">
          <mxGeometry y="30" width="230" height="30" as="geometry" />
        </mxCell>
        <mxCell id="Gs99Epr3pNbpuj_0KiGw-38" value="user_id" style="text;strokeColor=none;fillColor=none;align=left;verticalAlign=middle;spacingLeft=4;spacingRight=4;overflow=hidden;points=[[0,0.5],[1,0.5]];portConstraint=eastwest;rotatable=0;whiteSpace=wrap;html=1;fontSize=17;" parent="Gs99Epr3pNbpuj_0KiGw-36" vertex="1">
          <mxGeometry y="60" width="230" height="30" as="geometry" />
        </mxCell>
        <mxCell id="Gs99Epr3pNbpuj_0KiGw-39" value="post_id/comment_id" style="text;strokeColor=none;fillColor=none;align=left;verticalAlign=middle;spacingLeft=4;spacingRight=4;overflow=hidden;points=[[0,0.5],[1,0.5]];portConstraint=eastwest;rotatable=0;whiteSpace=wrap;html=1;fontSize=17;" parent="Gs99Epr3pNbpuj_0KiGw-36" vertex="1">
          <mxGeometry y="90" width="230" height="30" as="geometry" />
        </mxCell>
        <mxCell id="Gs99Epr3pNbpuj_0KiGw-40" value="vote_type" style="text;strokeColor=none;fillColor=none;align=left;verticalAlign=middle;spacingLeft=4;spacingRight=4;overflow=hidden;points=[[0,0.5],[1,0.5]];portConstraint=eastwest;rotatable=0;whiteSpace=wrap;html=1;fontSize=17;" parent="Gs99Epr3pNbpuj_0KiGw-36" vertex="1">
          <mxGeometry y="120" width="230" height="30" as="geometry" />
        </mxCell>
        <mxCell id="Gs99Epr3pNbpuj_0KiGw-41" value="&lt;font style=&quot;font-size: 16px;&quot;&gt;Message&lt;/font&gt;" style="swimlane;fontStyle=0;childLayout=stackLayout;horizontal=1;startSize=30;horizontalStack=0;resizeParent=1;resizeParentMax=0;resizeLast=0;collapsible=1;marginBottom=0;whiteSpace=wrap;html=1;" parent="1" vertex="1">
          <mxGeometry x="245" y="1120" width="230" height="180" as="geometry" />
        </mxCell>
        <mxCell id="Gs99Epr3pNbpuj_0KiGw-42" value="message_id" style="text;strokeColor=default;fillColor=none;align=left;verticalAlign=middle;spacingLeft=4;spacingRight=4;overflow=hidden;points=[[0,0.5],[1,0.5]];portConstraint=eastwest;rotatable=0;whiteSpace=wrap;html=1;fontSize=17;" parent="Gs99Epr3pNbpuj_0KiGw-41" vertex="1">
          <mxGeometry y="30" width="230" height="30" as="geometry" />
        </mxCell>
        <mxCell id="Gs99Epr3pNbpuj_0KiGw-43" value="sender_id" style="text;strokeColor=none;fillColor=none;align=left;verticalAlign=middle;spacingLeft=4;spacingRight=4;overflow=hidden;points=[[0,0.5],[1,0.5]];portConstraint=eastwest;rotatable=0;whiteSpace=wrap;html=1;fontSize=17;" parent="Gs99Epr3pNbpuj_0KiGw-41" vertex="1">
          <mxGeometry y="60" width="230" height="30" as="geometry" />
        </mxCell>
        <mxCell id="Gs99Epr3pNbpuj_0KiGw-44" value="receiver_id" style="text;strokeColor=none;fillColor=none;align=left;verticalAlign=middle;spacingLeft=4;spacingRight=4;overflow=hidden;points=[[0,0.5],[1,0.5]];portConstraint=eastwest;rotatable=0;whiteSpace=wrap;html=1;fontSize=17;" parent="Gs99Epr3pNbpuj_0KiGw-41" vertex="1">
          <mxGeometry y="90" width="230" height="30" as="geometry" />
        </mxCell>
        <mxCell id="Gs99Epr3pNbpuj_0KiGw-45" value="content" style="text;strokeColor=none;fillColor=none;align=left;verticalAlign=middle;spacingLeft=4;spacingRight=4;overflow=hidden;points=[[0,0.5],[1,0.5]];portConstraint=eastwest;rotatable=0;whiteSpace=wrap;html=1;fontSize=17;" parent="Gs99Epr3pNbpuj_0KiGw-41" vertex="1">
          <mxGeometry y="120" width="230" height="30" as="geometry" />
        </mxCell>
        <mxCell id="Gs99Epr3pNbpuj_0KiGw-46" value="sent_at" style="text;strokeColor=none;fillColor=none;align=left;verticalAlign=middle;spacingLeft=4;spacingRight=4;overflow=hidden;points=[[0,0.5],[1,0.5]];portConstraint=eastwest;rotatable=0;whiteSpace=wrap;html=1;fontSize=17;" parent="Gs99Epr3pNbpuj_0KiGw-41" vertex="1">
          <mxGeometry y="150" width="230" height="30" as="geometry" />
        </mxCell>
        <mxCell id="Gs99Epr3pNbpuj_0KiGw-91" style="edgeStyle=none;curved=1;rounded=0;orthogonalLoop=1;jettySize=auto;html=1;entryX=1;entryY=0;entryDx=0;entryDy=0;fontSize=12;startSize=8;endSize=8;" parent="1" source="Gs99Epr3pNbpuj_0KiGw-47" target="Gs99Epr3pNbpuj_0KiGw-53" edge="1">
          <mxGeometry relative="1" as="geometry" />
        </mxCell>
        <mxCell id="Gs99Epr3pNbpuj_0KiGw-95" style="edgeStyle=none;curved=1;rounded=0;orthogonalLoop=1;jettySize=auto;html=1;entryX=1;entryY=0.5;entryDx=0;entryDy=0;fontSize=12;startSize=8;endSize=8;" parent="1" source="Gs99Epr3pNbpuj_0KiGw-47" target="Gs99Epr3pNbpuj_0KiGw-81" edge="1">
          <mxGeometry relative="1" as="geometry">
            <Array as="points">
              <mxPoint x="980" y="1660" />
            </Array>
          </mxGeometry>
        </mxCell>
        <mxCell id="Gs99Epr3pNbpuj_0KiGw-47" value="&lt;font style=&quot;font-size: 16px;&quot;&gt;Award&lt;/font&gt;" style="swimlane;fontStyle=0;childLayout=stackLayout;horizontal=1;startSize=30;horizontalStack=0;resizeParent=1;resizeParentMax=0;resizeLast=0;collapsible=1;marginBottom=0;whiteSpace=wrap;html=1;" parent="1" vertex="1">
          <mxGeometry x="780" y="1010" width="230" height="180" as="geometry" />
        </mxCell>
        <mxCell id="Gs99Epr3pNbpuj_0KiGw-48" value="award&lt;span style=&quot;background-color: initial;&quot;&gt;_id&lt;/span&gt;" style="text;strokeColor=default;fillColor=none;align=left;verticalAlign=middle;spacingLeft=4;spacingRight=4;overflow=hidden;points=[[0,0.5],[1,0.5]];portConstraint=eastwest;rotatable=0;whiteSpace=wrap;html=1;fontSize=17;" parent="Gs99Epr3pNbpuj_0KiGw-47" vertex="1">
          <mxGeometry y="30" width="230" height="30" as="geometry" />
        </mxCell>
        <mxCell id="Gs99Epr3pNbpuj_0KiGw-49" value="giver_id" style="text;strokeColor=none;fillColor=none;align=left;verticalAlign=middle;spacingLeft=4;spacingRight=4;overflow=hidden;points=[[0,0.5],[1,0.5]];portConstraint=eastwest;rotatable=0;whiteSpace=wrap;html=1;fontSize=17;" parent="Gs99Epr3pNbpuj_0KiGw-47" vertex="1">
          <mxGeometry y="60" width="230" height="30" as="geometry" />
        </mxCell>
        <mxCell id="Gs99Epr3pNbpuj_0KiGw-50" value="receiver_id" style="text;strokeColor=none;fillColor=none;align=left;verticalAlign=middle;spacingLeft=4;spacingRight=4;overflow=hidden;points=[[0,0.5],[1,0.5]];portConstraint=eastwest;rotatable=0;whiteSpace=wrap;html=1;fontSize=17;" parent="Gs99Epr3pNbpuj_0KiGw-47" vertex="1">
          <mxGeometry y="90" width="230" height="30" as="geometry" />
        </mxCell>
        <mxCell id="Gs99Epr3pNbpuj_0KiGw-51" value="post_id/comment_id" style="text;strokeColor=none;fillColor=none;align=left;verticalAlign=middle;spacingLeft=4;spacingRight=4;overflow=hidden;points=[[0,0.5],[1,0.5]];portConstraint=eastwest;rotatable=0;whiteSpace=wrap;html=1;fontSize=17;" parent="Gs99Epr3pNbpuj_0KiGw-47" vertex="1">
          <mxGeometry y="120" width="230" height="30" as="geometry" />
        </mxCell>
        <mxCell id="Gs99Epr3pNbpuj_0KiGw-52" value="award_type" style="text;strokeColor=none;fillColor=none;align=left;verticalAlign=middle;spacingLeft=4;spacingRight=4;overflow=hidden;points=[[0,0.5],[1,0.5]];portConstraint=eastwest;rotatable=0;whiteSpace=wrap;html=1;fontSize=17;" parent="Gs99Epr3pNbpuj_0KiGw-47" vertex="1">
          <mxGeometry y="150" width="230" height="30" as="geometry" />
        </mxCell>
        <mxCell id="Gs99Epr3pNbpuj_0KiGw-94" style="edgeStyle=none;curved=1;rounded=0;orthogonalLoop=1;jettySize=auto;html=1;fontSize=12;startSize=8;endSize=8;" parent="1" source="Gs99Epr3pNbpuj_0KiGw-53" edge="1">
          <mxGeometry relative="1" as="geometry">
            <mxPoint x="290.0000000000002" y="1530" as="targetPoint" />
          </mxGeometry>
        </mxCell>
        <mxCell id="Gs99Epr3pNbpuj_0KiGw-96" style="edgeStyle=none;curved=1;rounded=0;orthogonalLoop=1;jettySize=auto;html=1;entryX=0.5;entryY=0;entryDx=0;entryDy=0;fontSize=12;startSize=8;endSize=8;" parent="1" source="Gs99Epr3pNbpuj_0KiGw-53" target="Gs99Epr3pNbpuj_0KiGw-69" edge="1">
          <mxGeometry relative="1" as="geometry" />
        </mxCell>
        <mxCell id="Gs99Epr3pNbpuj_0KiGw-53" value="&lt;font style=&quot;font-size: 16px;&quot;&gt;Post&lt;/font&gt;" style="swimlane;fontStyle=0;childLayout=stackLayout;horizontal=1;startSize=30;horizontalStack=0;resizeParent=1;resizeParentMax=0;resizeLast=0;collapsible=1;marginBottom=0;whiteSpace=wrap;html=1;" parent="1" vertex="1">
          <mxGeometry x="530" y="1240" width="230" height="270" as="geometry" />
        </mxCell>
        <mxCell id="Gs99Epr3pNbpuj_0KiGw-54" value="post_id" style="text;strokeColor=default;fillColor=none;align=left;verticalAlign=middle;spacingLeft=4;spacingRight=4;overflow=hidden;points=[[0,0.5],[1,0.5]];portConstraint=eastwest;rotatable=0;whiteSpace=wrap;html=1;fontSize=17;" parent="Gs99Epr3pNbpuj_0KiGw-53" vertex="1">
          <mxGeometry y="30" width="230" height="30" as="geometry" />
        </mxCell>
        <mxCell id="Gs99Epr3pNbpuj_0KiGw-55" value="user_id" style="text;strokeColor=none;fillColor=none;align=left;verticalAlign=middle;spacingLeft=4;spacingRight=4;overflow=hidden;points=[[0,0.5],[1,0.5]];portConstraint=eastwest;rotatable=0;whiteSpace=wrap;html=1;fontSize=17;" parent="Gs99Epr3pNbpuj_0KiGw-53" vertex="1">
          <mxGeometry y="60" width="230" height="30" as="geometry" />
        </mxCell>
        <mxCell id="Gs99Epr3pNbpuj_0KiGw-56" value="subreddit_id" style="text;strokeColor=none;fillColor=none;align=left;verticalAlign=middle;spacingLeft=4;spacingRight=4;overflow=hidden;points=[[0,0.5],[1,0.5]];portConstraint=eastwest;rotatable=0;whiteSpace=wrap;html=1;fontSize=17;" parent="Gs99Epr3pNbpuj_0KiGw-53" vertex="1">
          <mxGeometry y="90" width="230" height="30" as="geometry" />
        </mxCell>
        <mxCell id="Gs99Epr3pNbpuj_0KiGw-57" value="title" style="text;strokeColor=none;fillColor=none;align=left;verticalAlign=middle;spacingLeft=4;spacingRight=4;overflow=hidden;points=[[0,0.5],[1,0.5]];portConstraint=eastwest;rotatable=0;whiteSpace=wrap;html=1;fontSize=17;" parent="Gs99Epr3pNbpuj_0KiGw-53" vertex="1">
          <mxGeometry y="120" width="230" height="30" as="geometry" />
        </mxCell>
        <mxCell id="Gs99Epr3pNbpuj_0KiGw-58" value="content" style="text;strokeColor=none;fillColor=none;align=left;verticalAlign=middle;spacingLeft=4;spacingRight=4;overflow=hidden;points=[[0,0.5],[1,0.5]];portConstraint=eastwest;rotatable=0;whiteSpace=wrap;html=1;fontSize=17;" parent="Gs99Epr3pNbpuj_0KiGw-53" vertex="1">
          <mxGeometry y="150" width="230" height="30" as="geometry" />
        </mxCell>
        <mxCell id="Gs99Epr3pNbpuj_0KiGw-60" value="created_at" style="text;strokeColor=none;fillColor=none;align=left;verticalAlign=middle;spacingLeft=4;spacingRight=4;overflow=hidden;points=[[0,0.5],[1,0.5]];portConstraint=eastwest;rotatable=0;whiteSpace=wrap;html=1;fontSize=17;" parent="Gs99Epr3pNbpuj_0KiGw-53" vertex="1">
          <mxGeometry y="180" width="230" height="30" as="geometry" />
        </mxCell>
        <mxCell id="Gs99Epr3pNbpuj_0KiGw-62" value="upvotes" style="text;strokeColor=none;fillColor=none;align=left;verticalAlign=middle;spacingLeft=4;spacingRight=4;overflow=hidden;points=[[0,0.5],[1,0.5]];portConstraint=eastwest;rotatable=0;whiteSpace=wrap;html=1;fontSize=17;" parent="Gs99Epr3pNbpuj_0KiGw-53" vertex="1">
          <mxGeometry y="210" width="230" height="30" as="geometry" />
        </mxCell>
        <mxCell id="Gs99Epr3pNbpuj_0KiGw-59" value="downvotes" style="text;strokeColor=none;fillColor=none;align=left;verticalAlign=middle;spacingLeft=4;spacingRight=4;overflow=hidden;points=[[0,0.5],[1,0.5]];portConstraint=eastwest;rotatable=0;whiteSpace=wrap;html=1;fontSize=17;" parent="Gs99Epr3pNbpuj_0KiGw-53" vertex="1">
          <mxGeometry y="240" width="230" height="30" as="geometry" />
        </mxCell>
        <mxCell id="Gs99Epr3pNbpuj_0KiGw-99" style="edgeStyle=none;curved=1;rounded=0;orthogonalLoop=1;jettySize=auto;html=1;entryX=0.75;entryY=0;entryDx=0;entryDy=0;fontSize=12;startSize=8;endSize=8;" parent="1" source="Gs99Epr3pNbpuj_0KiGw-63" target="Gs99Epr3pNbpuj_0KiGw-69" edge="1">
          <mxGeometry relative="1" as="geometry" />
        </mxCell>
        <mxCell id="Gs99Epr3pNbpuj_0KiGw-63" value="&lt;font style=&quot;font-size: 16px;&quot;&gt;Moderator&lt;/font&gt;" style="swimlane;fontStyle=0;childLayout=stackLayout;horizontal=1;startSize=30;horizontalStack=0;resizeParent=1;resizeParentMax=0;resizeLast=0;collapsible=1;marginBottom=0;whiteSpace=wrap;html=1;" parent="1" vertex="1">
          <mxGeometry x="1080" y="1175" width="230" height="150" as="geometry" />
        </mxCell>
        <mxCell id="Gs99Epr3pNbpuj_0KiGw-64" value="moderator_id" style="text;strokeColor=default;fillColor=none;align=left;verticalAlign=middle;spacingLeft=4;spacingRight=4;overflow=hidden;points=[[0,0.5],[1,0.5]];portConstraint=eastwest;rotatable=0;whiteSpace=wrap;html=1;fontSize=17;" parent="Gs99Epr3pNbpuj_0KiGw-63" vertex="1">
          <mxGeometry y="30" width="230" height="30" as="geometry" />
        </mxCell>
        <mxCell id="Gs99Epr3pNbpuj_0KiGw-65" value="user_id" style="text;strokeColor=none;fillColor=none;align=left;verticalAlign=middle;spacingLeft=4;spacingRight=4;overflow=hidden;points=[[0,0.5],[1,0.5]];portConstraint=eastwest;rotatable=0;whiteSpace=wrap;html=1;fontSize=17;" parent="Gs99Epr3pNbpuj_0KiGw-63" vertex="1">
          <mxGeometry y="60" width="230" height="30" as="geometry" />
        </mxCell>
        <mxCell id="Gs99Epr3pNbpuj_0KiGw-66" value="subreddit_id" style="text;strokeColor=none;fillColor=none;align=left;verticalAlign=middle;spacingLeft=4;spacingRight=4;overflow=hidden;points=[[0,0.5],[1,0.5]];portConstraint=eastwest;rotatable=0;whiteSpace=wrap;html=1;fontSize=17;" parent="Gs99Epr3pNbpuj_0KiGw-63" vertex="1">
          <mxGeometry y="90" width="230" height="30" as="geometry" />
        </mxCell>
        <mxCell id="Gs99Epr3pNbpuj_0KiGw-67" value="appointed_at" style="text;strokeColor=none;fillColor=none;align=left;verticalAlign=middle;spacingLeft=4;spacingRight=4;overflow=hidden;points=[[0,0.5],[1,0.5]];portConstraint=eastwest;rotatable=0;whiteSpace=wrap;html=1;fontSize=17;" parent="Gs99Epr3pNbpuj_0KiGw-63" vertex="1">
          <mxGeometry y="120" width="230" height="30" as="geometry" />
        </mxCell>
        <mxCell id="Gs99Epr3pNbpuj_0KiGw-69" value="&lt;font style=&quot;font-size: 16px;&quot;&gt;Subreddit&lt;/font&gt;" style="swimlane;fontStyle=0;childLayout=stackLayout;horizontal=1;startSize=30;horizontalStack=0;resizeParent=1;resizeParentMax=0;resizeLast=0;collapsible=1;marginBottom=0;whiteSpace=wrap;html=1;" parent="1" vertex="1">
          <mxGeometry x="960" y="1470" width="230" height="180" as="geometry" />
        </mxCell>
        <mxCell id="Gs99Epr3pNbpuj_0KiGw-70" value="subreddit_id" style="text;strokeColor=default;fillColor=none;align=left;verticalAlign=middle;spacingLeft=4;spacingRight=4;overflow=hidden;points=[[0,0.5],[1,0.5]];portConstraint=eastwest;rotatable=0;whiteSpace=wrap;html=1;fontSize=17;" parent="Gs99Epr3pNbpuj_0KiGw-69" vertex="1">
          <mxGeometry y="30" width="230" height="30" as="geometry" />
        </mxCell>
        <mxCell id="Gs99Epr3pNbpuj_0KiGw-71" value="name" style="text;strokeColor=none;fillColor=none;align=left;verticalAlign=middle;spacingLeft=4;spacingRight=4;overflow=hidden;points=[[0,0.5],[1,0.5]];portConstraint=eastwest;rotatable=0;whiteSpace=wrap;html=1;fontSize=17;" parent="Gs99Epr3pNbpuj_0KiGw-69" vertex="1">
          <mxGeometry y="60" width="230" height="30" as="geometry" />
        </mxCell>
        <mxCell id="Gs99Epr3pNbpuj_0KiGw-72" value="description" style="text;strokeColor=none;fillColor=none;align=left;verticalAlign=middle;spacingLeft=4;spacingRight=4;overflow=hidden;points=[[0,0.5],[1,0.5]];portConstraint=eastwest;rotatable=0;whiteSpace=wrap;html=1;fontSize=17;" parent="Gs99Epr3pNbpuj_0KiGw-69" vertex="1">
          <mxGeometry y="90" width="230" height="30" as="geometry" />
        </mxCell>
        <mxCell id="Gs99Epr3pNbpuj_0KiGw-73" value="created_at" style="text;strokeColor=none;fillColor=none;align=left;verticalAlign=middle;spacingLeft=4;spacingRight=4;overflow=hidden;points=[[0,0.5],[1,0.5]];portConstraint=eastwest;rotatable=0;whiteSpace=wrap;html=1;fontSize=17;" parent="Gs99Epr3pNbpuj_0KiGw-69" vertex="1">
          <mxGeometry y="120" width="230" height="30" as="geometry" />
        </mxCell>
        <mxCell id="Gs99Epr3pNbpuj_0KiGw-74" value="subscriber_count" style="text;strokeColor=none;fillColor=none;align=left;verticalAlign=middle;spacingLeft=4;spacingRight=4;overflow=hidden;points=[[0,0.5],[1,0.5]];portConstraint=eastwest;rotatable=0;whiteSpace=wrap;html=1;fontSize=17;" parent="Gs99Epr3pNbpuj_0KiGw-69" vertex="1">
          <mxGeometry y="150" width="230" height="30" as="geometry" />
        </mxCell>
        <mxCell id="Gs99Epr3pNbpuj_0KiGw-78" value="&lt;font style=&quot;font-size: 16px;&quot;&gt;Comment&lt;/font&gt;" style="swimlane;fontStyle=0;childLayout=stackLayout;horizontal=1;startSize=30;horizontalStack=0;resizeParent=1;resizeParentMax=0;resizeLast=0;collapsible=1;marginBottom=0;whiteSpace=wrap;html=1;" parent="1" vertex="1">
          <mxGeometry x="60" y="1530" width="230" height="210" as="geometry" />
        </mxCell>
        <mxCell id="Gs99Epr3pNbpuj_0KiGw-79" value="comment_id" style="text;strokeColor=default;fillColor=none;align=left;verticalAlign=middle;spacingLeft=4;spacingRight=4;overflow=hidden;points=[[0,0.5],[1,0.5]];portConstraint=eastwest;rotatable=0;whiteSpace=wrap;html=1;fontSize=17;" parent="Gs99Epr3pNbpuj_0KiGw-78" vertex="1">
          <mxGeometry y="30" width="230" height="30" as="geometry" />
        </mxCell>
        <mxCell id="Gs99Epr3pNbpuj_0KiGw-80" value="user_id" style="text;strokeColor=none;fillColor=none;align=left;verticalAlign=middle;spacingLeft=4;spacingRight=4;overflow=hidden;points=[[0,0.5],[1,0.5]];portConstraint=eastwest;rotatable=0;whiteSpace=wrap;html=1;fontSize=17;" parent="Gs99Epr3pNbpuj_0KiGw-78" vertex="1">
          <mxGeometry y="60" width="230" height="30" as="geometry" />
        </mxCell>
        <mxCell id="Gs99Epr3pNbpuj_0KiGw-81" value="post_id" style="text;strokeColor=none;fillColor=none;align=left;verticalAlign=middle;spacingLeft=4;spacingRight=4;overflow=hidden;points=[[0,0.5],[1,0.5]];portConstraint=eastwest;rotatable=0;whiteSpace=wrap;html=1;fontSize=17;" parent="Gs99Epr3pNbpuj_0KiGw-78" vertex="1">
          <mxGeometry y="90" width="230" height="30" as="geometry" />
        </mxCell>
        <mxCell id="Gs99Epr3pNbpuj_0KiGw-82" value="parent_comment_id" style="text;strokeColor=none;fillColor=none;align=left;verticalAlign=middle;spacingLeft=4;spacingRight=4;overflow=hidden;points=[[0,0.5],[1,0.5]];portConstraint=eastwest;rotatable=0;whiteSpace=wrap;html=1;fontSize=17;" parent="Gs99Epr3pNbpuj_0KiGw-78" vertex="1">
          <mxGeometry y="120" width="230" height="30" as="geometry" />
        </mxCell>
        <mxCell id="Gs99Epr3pNbpuj_0KiGw-83" value="content" style="text;strokeColor=none;fillColor=none;align=left;verticalAlign=middle;spacingLeft=4;spacingRight=4;overflow=hidden;points=[[0,0.5],[1,0.5]];portConstraint=eastwest;rotatable=0;whiteSpace=wrap;html=1;fontSize=17;" parent="Gs99Epr3pNbpuj_0KiGw-78" vertex="1">
          <mxGeometry y="150" width="230" height="30" as="geometry" />
        </mxCell>
        <mxCell id="Gs99Epr3pNbpuj_0KiGw-84" value="created_at" style="text;strokeColor=none;fillColor=none;align=left;verticalAlign=middle;spacingLeft=4;spacingRight=4;overflow=hidden;points=[[0,0.5],[1,0.5]];portConstraint=eastwest;rotatable=0;whiteSpace=wrap;html=1;fontSize=17;" parent="Gs99Epr3pNbpuj_0KiGw-78" vertex="1">
          <mxGeometry y="180" width="230" height="30" as="geometry" />
        </mxCell>
        <mxCell id="Gs99Epr3pNbpuj_0KiGw-92" style="edgeStyle=none;curved=1;rounded=0;orthogonalLoop=1;jettySize=auto;html=1;fontSize=12;startSize=8;endSize=8;entryX=0.75;entryY=0;entryDx=0;entryDy=0;" parent="1" source="Gs99Epr3pNbpuj_0KiGw-36" target="Gs99Epr3pNbpuj_0KiGw-53" edge="1">
          <mxGeometry relative="1" as="geometry">
            <mxPoint x="655" y="1243" as="targetPoint" />
            <Array as="points">
              <mxPoint x="520" y="1040" />
            </Array>
          </mxGeometry>
        </mxCell>
        <mxCell id="Gs99Epr3pNbpuj_0KiGw-97" style="edgeStyle=none;curved=1;rounded=0;orthogonalLoop=1;jettySize=auto;html=1;entryX=0.25;entryY=0;entryDx=0;entryDy=0;fontSize=12;startSize=8;endSize=8;" parent="1" source="Gs99Epr3pNbpuj_0KiGw-34" target="Gs99Epr3pNbpuj_0KiGw-69" edge="1">
          <mxGeometry relative="1" as="geometry">
            <Array as="points">
              <mxPoint x="1170" y="840" />
            </Array>
          </mxGeometry>
        </mxCell>
        <mxCell id="Gs99Epr3pNbpuj_0KiGw-98" style="edgeStyle=none;curved=1;rounded=0;orthogonalLoop=1;jettySize=auto;html=1;entryX=0.5;entryY=0;entryDx=0;entryDy=0;fontSize=12;startSize=8;endSize=8;" parent="1" source="Gs99Epr3pNbpuj_0KiGw-35" target="Gs99Epr3pNbpuj_0KiGw-63" edge="1">
          <mxGeometry relative="1" as="geometry">
            <Array as="points">
              <mxPoint x="1090" y="750" />
            </Array>
          </mxGeometry>
        </mxCell>
        <mxCell id="Gs99Epr3pNbpuj_0KiGw-100" style="edgeStyle=none;curved=1;rounded=0;orthogonalLoop=1;jettySize=auto;html=1;entryX=0.75;entryY=0;entryDx=0;entryDy=0;fontSize=12;startSize=8;endSize=8;" parent="1" source="Gs99Epr3pNbpuj_0KiGw-27" target="Gs99Epr3pNbpuj_0KiGw-78" edge="1">
          <mxGeometry relative="1" as="geometry">
            <Array as="points">
              <mxPoint x="-470" y="850" />
            </Array>
          </mxGeometry>
        </mxCell>
      </root>
    </mxGraphModel>
  </diagram>
</mxfile>
